<?xml version="1.0" encoding="UTF-8" standalone="no" ?>
<!DOCTYPE svg PUBLIC "-//W3C//DTD SVG 1.1//EN" "http://www.w3.org/Graphics/SVG/1.1/DTD/svg11.dtd">
<svg xmlns="http://www.w3.org/2000/svg" xmlns:xlink="http://www.w3.org/1999/xlink" version="1.1" width="872.9167578125" height="277.27207999999996" xml:space="preserve">
<desc>Created with Fabric.js 1.6.0-rc.1</desc>
<defs></defs>
<g style="stroke: none; stroke-width: 1; stroke-dasharray: none; stroke-linecap: butt; stroke-linejoin: miter; stroke-miterlimit: 10; fill: none; fill-rule: nonzero; opacity: 1;" transform="translate(10 18) rotate(41.98) scale(0.51 0.51)" >
  <path d="M 310.277 107.305 c -43.976 0 -92.099 63.076 -107.475 84.968 c -15.52 -22.071 -63.487 -84.771 -107.332 -84.771 c -52.64 0 -95.47 42.83 -95.47 95.47 s 42.83 95.47 95.47 95.47 c 43.976 0 92.099 -63.076 107.475 -84.968 c 15.52 22.071 63.488 84.771 107.332 84.771 c 52.64 0 95.47 -42.83 95.47 -95.47 S 362.917 107.305 310.277 107.305 z M 95.47 286.508 c -46.064 0 -83.536 -37.472 -83.536 -83.536 s 37.472 -83.536 83.536 -83.536 c 40.509 0 89.384 67.766 100.214 83.536 C 184.854 218.742 135.979 286.508 95.47 286.508 z M 310.277 286.311 c -40.509 0 -89.384 -67.766 -100.214 -83.536 c 10.824 -15.77 59.704 -83.536 100.214 -83.536 c 46.064 0 83.536 37.472 83.536 83.536 S 356.341 286.311 310.277 286.311 z" style="stroke: none; stroke-width: 1; stroke-dasharray: none; stroke-linecap: butt; stroke-linejoin: miter; stroke-miterlimit: 10; fill: #28334a; fill-rule: nonzero; opacity: 1;" transform="" stroke-linecap="round" />
</g>
  <g transform="translate(498.25 198.1) scale(2.69 2.69)">
   <text font-family="ADAMCG PRO" font-size="40" font-weight="normal" style="stroke: none; stroke-width: 1; stroke-dasharray: none; stroke-linecap: butt; stroke-linejoin: miter; stroke-miterlimit: 10; fill: #28334a; fill-rule: nonzero; opacity: 1;" ><tspan x="-136.06" y="8.98" style="stroke: none; stroke-width: 0; stroke-dasharray: none; stroke-linecap: butt; stroke-linejoin: miter; stroke-miterlimit: 4; fill: #28334a; fill-rule: ; opacity: 1;">L</tspan><tspan x="-115.63" y="8.98" style="stroke: none; stroke-width: 0; stroke-dasharray: none; stroke-linecap: butt; stroke-linejoin: miter; stroke-miterlimit: 4; fill: #28334a; fill-rule: ; opacity: 1;">e</tspan><tspan x="-92.37" y="8.98" style="stroke: none; stroke-width: 0; stroke-dasharray: none; stroke-linecap: butt; stroke-linejoin: miter; stroke-miterlimit: 4; fill: #28334a; fill-rule: ; opacity: 1;">a</tspan><tspan x="-64.58" y="8.98" style="stroke: none; stroke-width: 0; stroke-dasharray: none; stroke-linecap: butt; stroke-linejoin: miter; stroke-miterlimit: 4; fill: #28334a; fill-rule: ; opacity: 1;">r</tspan><tspan x="-38.96" y="8.98" style="stroke: none; stroke-width: 0; stroke-dasharray: none; stroke-linecap: butt; stroke-linejoin: miter; stroke-miterlimit: 4; fill: #28334a; fill-rule: ; opacity: 1;">n</tspan><tspan x="-9.44" y="8.98" style="stroke: none; stroke-width: 0; stroke-dasharray: none; stroke-linecap: butt; stroke-linejoin: miter; stroke-miterlimit: 4; fill: #28334a; fill-rule: ; opacity: 1;">f</tspan><tspan x="11.87" y="8.98" style="stroke: none; stroke-width: 0; stroke-dasharray: none; stroke-linecap: butt; stroke-linejoin: miter; stroke-miterlimit: 4; fill: #28334a; fill-rule: ; opacity: 1;">l</tspan><tspan x="32.29" y="8.98" style="stroke: none; stroke-width: 0; stroke-dasharray: none; stroke-linecap: butt; stroke-linejoin: miter; stroke-miterlimit: 4; fill: #28334a; fill-rule: ; opacity: 1;">u</tspan><tspan x="59.93" y="8.98" style="stroke: none; stroke-width: 0; stroke-dasharray: none; stroke-linecap: butt; stroke-linejoin: miter; stroke-miterlimit: 4; fill: #28334a; fill-rule: ; opacity: 1;">e</tspan><tspan x="83.19" y="8.98" style="stroke: none; stroke-width: 0; stroke-dasharray: none; stroke-linecap: butt; stroke-linejoin: miter; stroke-miterlimit: 4; fill: #28334a; fill-rule: ; opacity: 1;">n</tspan><tspan x="112.71" y="8.98" style="stroke: none; stroke-width: 0; stroke-dasharray: none; stroke-linecap: butt; stroke-linejoin: miter; stroke-miterlimit: 4; fill: #28334a; fill-rule: ; opacity: 1;">t</tspan></text>
 </g>
<g style="stroke: none; stroke-width: 1; stroke-dasharray: none; stroke-linecap: butt; stroke-linejoin: miter; stroke-miterlimit: 10; fill: none; fill-rule: nonzero; opacity: 1;" transform="translate(23 10) rotate(41.98) scale(0.51 0.51)" >
  <path d="M 310.277 107.305 c -43.976 0 -92.099 63.076 -107.475 84.968 c -15.52 -22.071 -63.487 -84.771 -107.332 -84.771 c -52.64 0 -95.47 42.83 -95.47 95.47 s 42.83 95.47 95.47 95.47 c 43.976 0 92.099 -63.076 107.475 -84.968 c 15.52 22.071 63.488 84.771 107.332 84.771 c 52.64 0 95.47 -42.83 95.47 -95.47 S 362.917 107.305 310.277 107.305 z M 95.47 286.508 c -46.064 0 -83.536 -37.472 -83.536 -83.536 s 37.472 -83.536 83.536 -83.536 c 40.509 0 89.384 67.766 100.214 83.536 C 184.854 218.742 135.979 286.508 95.47 286.508 z M 310.277 286.311 c -40.509 0 -89.384 -67.766 -100.214 -83.536 c 10.824 -15.77 59.704 -83.536 100.214 -83.536 c 46.064 0 83.536 37.472 83.536 83.536 S 356.341 286.311 310.277 286.311 z" style="stroke: none; stroke-width: 1; stroke-dasharray: none; stroke-linecap: butt; stroke-linejoin: miter; stroke-miterlimit: 10; fill: #28334a; fill-rule: nonzero; opacity: 1;" transform="" stroke-linecap="round" />
</g>
</svg>